# xmcd CD database file
#
# Track frame offsets:
#	150
#	15021
#	29273
#	45302
#	62567
#	78519
#	93069
#	105554
#	121163
#	138786
#	154930
#	164889
#	184928
#	198030
#	210575
#	222538
#	237985
#	252593
#
# Disc length: 3635 seconds
#
# Revision: 0
# Processed by: cddbd v1.5.2PL0 Copyright (c) Steve Scherf et al.
# Submitted via: CDex 1.50
#
DISCID=ea0e3112
DTITLE=Various Artist - 016 - Tom Astor - Take it Easy - Die Collection - CD - 04
DYEAR=2008
DGENRE=Country
TTITLE0=Geistertruck
TTITLE1=International Airport
TTITLE2=Schreib mir mal aus Nexico
TTITLE3=Respekt vor deiner Schwäche
TTITLE4=Darum sag ich danke für mein Leben 
TTITLE5=Das letzte Hemd hat keine Taschen
TTITLE6=Do bist mein bester Freund
TTITLE7=Hand in Hand
TTITLE8=Sie reden schneller als sie denken
TTITLE9=Schuld ist der Baby Boom
TTITLE10=Adios Amigo
TTITLE11=Der Feigling des Jahrhunderts
TTITLE12=Home Sweet Highway
TTITLE13=Schlaraffenland ist abgebrannt
TTITLE14=Ja , das ist country Music live 
TTITLE15=Orange Bolossom special
TTITLE16=Take me home country Roads
TTITLE17=Auf wiederseh'n und goodbye
EXTD=YEAR: 2008
EXTT0=
EXTT1=
EXTT2=
EXTT3=
EXTT4=
EXTT5=
EXTT6=
EXTT7=
EXTT8=
EXTT9=
EXTT10=
EXTT11=
EXTT12=
EXTT13=
EXTT14=
EXTT15=
EXTT16=
EXTT17=
PLAYORDER=
